#VRML V2.0 utf8
# Nominal 0.96in 128x64 I2C OLED module (27 x 27.5 mm, 4 straight pins) lying flat under the board in the back-side socket J9. Mechanical only.
Shape { appearance Appearance { material Material { diffuseColor 0.05 0.2 0.55 } } geometry IndexedFaceSet { solid FALSE coord Coordinate { point [ -9.9213 -6.8150 -4.8031, 0.9055 -6.8150 -4.8031, 0.9055 3.8150 -4.8031, -9.9213 3.8150 -4.8031, -9.9213 -6.8150 -4.3307, 0.9055 -6.8150 -4.3307, 0.9055 3.8150 -4.3307, -9.9213 3.8150 -4.3307, ] } coordIndex [ 0,3,2,1,-1, 4,5,6,7,-1, 0,1,5,4,-1, 1,2,6,5,-1, 2,3,7,6,-1, 3,0,4,7,-1, ] } }
Shape { appearance Appearance { material Material { diffuseColor 0.08 0.08 0.1 } } geometry IndexedFaceSet { solid FALSE coord Coordinate { point [ -9.5276 -6.7559 -5.3937, -1.4567 -6.7559 -5.3937, -1.4567 3.7559 -5.3937, -9.5276 3.7559 -5.3937, -9.5276 -6.7559 -4.8031, -1.4567 -6.7559 -4.8031, -1.4567 3.7559 -4.8031, -9.5276 3.7559 -4.8031, ] } coordIndex [ 0,3,2,1,-1, 4,5,6,7,-1, 0,1,5,4,-1, 1,2,6,5,-1, 2,3,7,6,-1, 3,0,4,7,-1, ] } }
Shape { appearance Appearance { material Material { diffuseColor 0.2 0.22 0.3 } } geometry IndexedFaceSet { solid FALSE coord Coordinate { point [ -8.5433 -5.7717 -5.4134, -2.4409 -5.7717 -5.4134, -2.4409 2.7717 -5.4134, -8.5433 2.7717 -5.4134, -8.5433 -5.7717 -5.3937, -2.4409 -5.7717 -5.3937, -2.4409 2.7717 -5.3937, -8.5433 2.7717 -5.3937, ] } coordIndex [ 0,3,2,1,-1, 4,5,6,7,-1, 0,1,5,4,-1, 1,2,6,5,-1, 2,3,7,6,-1, 3,0,4,7,-1, ] } }
Shape { appearance Appearance { material Material { diffuseColor 0.1 0.1 0.1 } } geometry IndexedFaceSet { solid FALSE coord Coordinate { point [ -0.5000 -3.5000 -4.3307, 0.5000 -3.5000 -4.3307, 0.5000 0.5000 -4.3307, -0.5000 0.5000 -4.3307, -0.5000 -3.5000 -3.3465, 0.5000 -3.5000 -3.3465, 0.5000 0.5000 -3.3465, -0.5000 0.5000 -3.3465, ] } coordIndex [ 0,3,2,1,-1, 4,5,6,7,-1, 0,1,5,4,-1, 1,2,6,5,-1, 2,3,7,6,-1, 3,0,4,7,-1, ] } }
Shape { appearance Appearance { material Material { diffuseColor 0.75 0.65 0.3 } } geometry IndexedFaceSet { solid FALSE coord Coordinate { point [ -0.1260 -0.1260 -5.5906, 0.1260 -0.1260 -5.5906, 0.1260 0.1260 -5.5906, -0.1260 0.1260 -5.5906, -0.1260 -0.1260 -0.3937, 0.1260 -0.1260 -0.3937, 0.1260 0.1260 -0.3937, -0.1260 0.1260 -0.3937, ] } coordIndex [ 0,3,2,1,-1, 4,5,6,7,-1, 0,1,5,4,-1, 1,2,6,5,-1, 2,3,7,6,-1, 3,0,4,7,-1, ] } }
Shape { appearance Appearance { material Material { diffuseColor 0.75 0.65 0.3 } } geometry IndexedFaceSet { solid FALSE coord Coordinate { point [ -0.1260 -1.1260 -5.5906, 0.1260 -1.1260 -5.5906, 0.1260 -0.8740 -5.5906, -0.1260 -0.8740 -5.5906, -0.1260 -1.1260 -0.3937, 0.1260 -1.1260 -0.3937, 0.1260 -0.8740 -0.3937, -0.1260 -0.8740 -0.3937, ] } coordIndex [ 0,3,2,1,-1, 4,5,6,7,-1, 0,1,5,4,-1, 1,2,6,5,-1, 2,3,7,6,-1, 3,0,4,7,-1, ] } }
Shape { appearance Appearance { material Material { diffuseColor 0.75 0.65 0.3 } } geometry IndexedFaceSet { solid FALSE coord Coordinate { point [ -0.1260 -2.1260 -5.5906, 0.1260 -2.1260 -5.5906, 0.1260 -1.8740 -5.5906, -0.1260 -1.8740 -5.5906, -0.1260 -2.1260 -0.3937, 0.1260 -2.1260 -0.3937, 0.1260 -1.8740 -0.3937, -0.1260 -1.8740 -0.3937, ] } coordIndex [ 0,3,2,1,-1, 4,5,6,7,-1, 0,1,5,4,-1, 1,2,6,5,-1, 2,3,7,6,-1, 3,0,4,7,-1, ] } }
Shape { appearance Appearance { material Material { diffuseColor 0.75 0.65 0.3 } } geometry IndexedFaceSet { solid FALSE coord Coordinate { point [ -0.1260 -3.1260 -5.5906, 0.1260 -3.1260 -5.5906, 0.1260 -2.8740 -5.5906, -0.1260 -2.8740 -5.5906, -0.1260 -3.1260 -0.3937, 0.1260 -3.1260 -0.3937, 0.1260 -2.8740 -0.3937, -0.1260 -2.8740 -0.3937, ] } coordIndex [ 0,3,2,1,-1, 4,5,6,7,-1, 0,1,5,4,-1, 1,2,6,5,-1, 2,3,7,6,-1, 3,0,4,7,-1, ] } }
Shape { appearance Appearance { material Material { diffuseColor 0.85 0.85 0.85 } } geometry IndexedFaceSet { solid FALSE coord Coordinate { point [ -0.2756 -6.4213 -4.8228, 0.5118 -6.4213 -4.8228, 0.5118 -5.6339 -4.8228, -0.2756 -5.6339 -4.8228, -0.2756 -6.4213 -4.3110, 0.5118 -6.4213 -4.3110, 0.5118 -5.6339 -4.3110, -0.2756 -5.6339 -4.3110, ] } coordIndex [ 0,3,2,1,-1, 4,5,6,7,-1, 0,1,5,4,-1, 1,2,6,5,-1, 2,3,7,6,-1, 3,0,4,7,-1, ] } }
Shape { appearance Appearance { material Material { diffuseColor 0.85 0.85 0.85 } } geometry IndexedFaceSet { solid FALSE coord Coordinate { point [ -0.2756 2.6339 -4.8228, 0.5118 2.6339 -4.8228, 0.5118 3.4213 -4.8228, -0.2756 3.4213 -4.8228, -0.2756 2.6339 -4.3110, 0.5118 2.6339 -4.3110, 0.5118 3.4213 -4.3110, -0.2756 3.4213 -4.3110, ] } coordIndex [ 0,3,2,1,-1, 4,5,6,7,-1, 0,1,5,4,-1, 1,2,6,5,-1, 2,3,7,6,-1, 3,0,4,7,-1, ] } }
Shape { appearance Appearance { material Material { diffuseColor 0.85 0.85 0.85 } } geometry IndexedFaceSet { solid FALSE coord Coordinate { point [ -9.5276 -6.4213 -4.8228, -8.7402 -6.4213 -4.8228, -8.7402 -5.6339 -4.8228, -9.5276 -5.6339 -4.8228, -9.5276 -6.4213 -4.3110, -8.7402 -6.4213 -4.3110, -8.7402 -5.6339 -4.3110, -9.5276 -5.6339 -4.3110, ] } coordIndex [ 0,3,2,1,-1, 4,5,6,7,-1, 0,1,5,4,-1, 1,2,6,5,-1, 2,3,7,6,-1, 3,0,4,7,-1, ] } }
Shape { appearance Appearance { material Material { diffuseColor 0.85 0.85 0.85 } } geometry IndexedFaceSet { solid FALSE coord Coordinate { point [ -9.5276 2.6339 -4.8228, -8.7402 2.6339 -4.8228, -8.7402 3.4213 -4.8228, -9.5276 3.4213 -4.8228, -9.5276 2.6339 -4.3110, -8.7402 2.6339 -4.3110, -8.7402 3.4213 -4.3110, -9.5276 3.4213 -4.3110, ] } coordIndex [ 0,3,2,1,-1, 4,5,6,7,-1, 0,1,5,4,-1, 1,2,6,5,-1, 2,3,7,6,-1, 3,0,4,7,-1, ] } }
