#VRML V2.0 utf8
# Nominal 1.3in 128x64 I2C OLED module (35.4 x 33.5 mm, 4-pin) standing in a vertical 2.54 mm socket. Mechanical only.
Shape { appearance Appearance { material Material { diffuseColor 0.05 0.2 0.55 specularColor 0.2 0.2 0.2 shininess 0.3 } }
 geometry IndexedFaceSet { solid FALSE coord Coordinate { point [ -0.2362 -8.4685 4.3307, 0.2362 -8.4685 4.3307, 0.2362 5.4685 4.3307, -0.2362 5.4685 4.3307, -0.2362 -8.4685 17.5197, 0.2362 -8.4685 17.5197, 0.2362 5.4685 17.5197, -0.2362 5.4685 17.5197, ] }
 coordIndex [ 0,3,2,1,-1, 4,5,6,7,-1, 0,1,5,4,-1, 1,2,6,5,-1, 2,3,7,6,-1, 3,0,4,7,-1, ] } }
Shape { appearance Appearance { material Material { diffuseColor 0.08 0.08 0.1 specularColor 0.2 0.2 0.2 shininess 0.3 } }
 geometry IndexedFaceSet { solid FALSE coord Coordinate { point [ 0.2362 -8.1929 7.8740, 0.8661 -8.1929 7.8740, 0.8661 5.1929 7.8740, 0.2362 5.1929 7.8740, 0.2362 -8.1929 15.7480, 0.8661 -8.1929 15.7480, 0.8661 5.1929 15.7480, 0.2362 5.1929 15.7480, ] }
 coordIndex [ 0,3,2,1,-1, 4,5,6,7,-1, 0,1,5,4,-1, 1,2,6,5,-1, 2,3,7,6,-1, 3,0,4,7,-1, ] } }
Shape { appearance Appearance { material Material { diffuseColor 0.15 0.18 0.25 specularColor 0.2 0.2 0.2 shininess 0.3 } }
 geometry IndexedFaceSet { solid FALSE coord Coordinate { point [ 0.8661 -7.2874 8.8583, 0.8858 -7.2874 8.8583, 0.8858 4.2874 8.8583, 0.8661 4.2874 8.8583, 0.8661 -7.2874 14.6457, 0.8858 -7.2874 14.6457, 0.8858 4.2874 14.6457, 0.8661 4.2874 14.6457, ] }
 coordIndex [ 0,3,2,1,-1, 4,5,6,7,-1, 0,1,5,4,-1, 1,2,6,5,-1, 2,3,7,6,-1, 3,0,4,7,-1, ] } }
Shape { appearance Appearance { material Material { diffuseColor 0.75 0.65 0.3 specularColor 0.2 0.2 0.2 shininess 0.3 } }
 geometry IndexedFaceSet { solid FALSE coord Coordinate { point [ -0.1260 -0.1260 0.3937, 0.1260 -0.1260 0.3937, 0.1260 0.1260 0.3937, -0.1260 0.1260 0.3937, -0.1260 -0.1260 4.9213, 0.1260 -0.1260 4.9213, 0.1260 0.1260 4.9213, -0.1260 0.1260 4.9213, ] }
 coordIndex [ 0,3,2,1,-1, 4,5,6,7,-1, 0,1,5,4,-1, 1,2,6,5,-1, 2,3,7,6,-1, 3,0,4,7,-1, ] } }
Shape { appearance Appearance { material Material { diffuseColor 0.75 0.65 0.3 specularColor 0.2 0.2 0.2 shininess 0.3 } }
 geometry IndexedFaceSet { solid FALSE coord Coordinate { point [ -0.1260 -1.1260 0.3937, 0.1260 -1.1260 0.3937, 0.1260 -0.8740 0.3937, -0.1260 -0.8740 0.3937, -0.1260 -1.1260 4.9213, 0.1260 -1.1260 4.9213, 0.1260 -0.8740 4.9213, -0.1260 -0.8740 4.9213, ] }
 coordIndex [ 0,3,2,1,-1, 4,5,6,7,-1, 0,1,5,4,-1, 1,2,6,5,-1, 2,3,7,6,-1, 3,0,4,7,-1, ] } }
Shape { appearance Appearance { material Material { diffuseColor 0.75 0.65 0.3 specularColor 0.2 0.2 0.2 shininess 0.3 } }
 geometry IndexedFaceSet { solid FALSE coord Coordinate { point [ -0.1260 -2.1260 0.3937, 0.1260 -2.1260 0.3937, 0.1260 -1.8740 0.3937, -0.1260 -1.8740 0.3937, -0.1260 -2.1260 4.9213, 0.1260 -2.1260 4.9213, 0.1260 -1.8740 4.9213, -0.1260 -1.8740 4.9213, ] }
 coordIndex [ 0,3,2,1,-1, 4,5,6,7,-1, 0,1,5,4,-1, 1,2,6,5,-1, 2,3,7,6,-1, 3,0,4,7,-1, ] } }
Shape { appearance Appearance { material Material { diffuseColor 0.75 0.65 0.3 specularColor 0.2 0.2 0.2 shininess 0.3 } }
 geometry IndexedFaceSet { solid FALSE coord Coordinate { point [ -0.1260 -3.1260 0.3937, 0.1260 -3.1260 0.3937, 0.1260 -2.8740 0.3937, -0.1260 -2.8740 0.3937, -0.1260 -3.1260 4.9213, 0.1260 -3.1260 4.9213, 0.1260 -2.8740 4.9213, -0.1260 -2.8740 4.9213, ] }
 coordIndex [ 0,3,2,1,-1, 4,5,6,7,-1, 0,1,5,4,-1, 1,2,6,5,-1, 2,3,7,6,-1, 3,0,4,7,-1, ] } }
Shape { appearance Appearance { material Material { diffuseColor 0.1 0.1 0.1 specularColor 0.2 0.2 0.2 shininess 0.3 } }
 geometry IndexedFaceSet { solid FALSE coord Coordinate { point [ -0.5000 -3.5000 3.3465, 0.5000 -3.5000 3.3465, 0.5000 0.5000 3.3465, -0.5000 0.5000 3.3465, -0.5000 -3.5000 4.3307, 0.5000 -3.5000 4.3307, 0.5000 0.5000 4.3307, -0.5000 0.5000 4.3307, ] }
 coordIndex [ 0,3,2,1,-1, 4,5,6,7,-1, 0,1,5,4,-1, 1,2,6,5,-1, 2,3,7,6,-1, 3,0,4,7,-1, ] } }
Shape { appearance Appearance { material Material { diffuseColor 0.6 0.6 0.6 specularColor 0.2 0.2 0.2 shininess 0.3 } }
 geometry IndexedFaceSet { solid FALSE coord Coordinate { point [ -0.2559 -7.8386 5.0787, 0.2559 -7.8386 5.0787, 0.2559 -6.9724 5.0787, -0.2559 -6.9724 5.0787, -0.2559 -7.8386 5.9449, 0.2559 -7.8386 5.9449, 0.2559 -6.9724 5.9449, -0.2559 -6.9724 5.9449, ] }
 coordIndex [ 0,3,2,1,-1, 4,5,6,7,-1, 0,1,5,4,-1, 1,2,6,5,-1, 2,3,7,6,-1, 3,0,4,7,-1, ] } }
Shape { appearance Appearance { material Material { diffuseColor 0.6 0.6 0.6 specularColor 0.2 0.2 0.2 shininess 0.3 } }
 geometry IndexedFaceSet { solid FALSE coord Coordinate { point [ -0.2559 3.9724 5.0787, 0.2559 3.9724 5.0787, 0.2559 4.8386 5.0787, -0.2559 4.8386 5.0787, -0.2559 3.9724 5.9449, 0.2559 3.9724 5.9449, 0.2559 4.8386 5.9449, -0.2559 4.8386 5.9449, ] }
 coordIndex [ 0,3,2,1,-1, 4,5,6,7,-1, 0,1,5,4,-1, 1,2,6,5,-1, 2,3,7,6,-1, 3,0,4,7,-1, ] } }
Shape { appearance Appearance { material Material { diffuseColor 0.6 0.6 0.6 specularColor 0.2 0.2 0.2 shininess 0.3 } }
 geometry IndexedFaceSet { solid FALSE coord Coordinate { point [ -0.2559 -7.8386 15.9055, 0.2559 -7.8386 15.9055, 0.2559 -6.9724 15.9055, -0.2559 -6.9724 15.9055, -0.2559 -7.8386 16.7717, 0.2559 -7.8386 16.7717, 0.2559 -6.9724 16.7717, -0.2559 -6.9724 16.7717, ] }
 coordIndex [ 0,3,2,1,-1, 4,5,6,7,-1, 0,1,5,4,-1, 1,2,6,5,-1, 2,3,7,6,-1, 3,0,4,7,-1, ] } }
Shape { appearance Appearance { material Material { diffuseColor 0.6 0.6 0.6 specularColor 0.2 0.2 0.2 shininess 0.3 } }
 geometry IndexedFaceSet { solid FALSE coord Coordinate { point [ -0.2559 3.9724 15.9055, 0.2559 3.9724 15.9055, 0.2559 4.8386 15.9055, -0.2559 4.8386 15.9055, -0.2559 3.9724 16.7717, 0.2559 3.9724 16.7717, 0.2559 4.8386 16.7717, -0.2559 4.8386 16.7717, ] }
 coordIndex [ 0,3,2,1,-1, 4,5,6,7,-1, 0,1,5,4,-1, 1,2,6,5,-1, 2,3,7,6,-1, 3,0,4,7,-1, ] } }
